<svg preserveAspectRatio="none" width="100%" height="100%" overflow="visible" style="display: block;" viewBox="0 0 35 45" fill="none" xmlns="http://www.w3.org/2000/svg">
<g id="Subtract">
<path d="M25.3642 6.48429C28.1912 8.76082 30.403 11.7686 31.7115 15.22L33.5789 14.614C32.1336 10.7533 29.6578 7.39474 26.4857 4.87223L25.9346 5.62988L25.3642 6.48429Z" fill="var(--fill-0, #FC8507)"/>
<path d="M13.4306 0V1.96034C17.2293 2.1382 20.7589 3.34418 23.7465 5.30597L24.9003 3.71988C21.5873 1.52475 17.6598 0.180689 13.4306 0Z" fill="var(--fill-0, #FC8507)"/>
<path d="M33.0391 22.5C33.0391 24.3749 32.7879 26.1912 32.3172 27.9172L34.1845 28.5231C34.716 26.606 35 24.5861 35 22.5C35 20.4138 34.716 18.3939 34.1844 16.4766L32.3171 17.0826C32.7879 18.8086 33.0391 20.625 33.0391 22.5Z" fill="var(--fill-0, #FC8507)"/>
<path d="M31.7116 29.7798C30.3982 33.2443 28.1745 36.262 25.332 38.5416L26.4859 40.1277C29.6579 37.6051 32.1337 34.2465 33.579 30.3858L31.7116 29.7798Z" fill="var(--fill-0, #FC8507)"/>
<path d="M23.7466 39.694C20.759 41.6558 17.2294 42.8618 13.4306 43.0397V45C17.6599 44.8193 21.5874 43.4752 24.9004 41.28L23.7466 39.694Z" fill="var(--fill-0, #FC8507)"/>
<path d="M11.4698 43.0397C7.67101 42.8618 4.14147 41.6558 1.15383 39.694L0 41.2801C3.31307 43.4752 7.24056 44.8193 11.4698 45V43.0397Z" fill="var(--fill-0, #FC8507)"/>
</g>
</svg>
