<svg preserveAspectRatio="none" width="100%" height="100%" overflow="visible" style="display: block;" viewBox="0 0 45 45" fill="none" xmlns="http://www.w3.org/2000/svg">
<g id="Subtract">
<path d="M35.3855 6.48429C38.2062 8.76082 40.4132 11.7686 41.7188 15.22L43.582 14.614C42.1399 10.7533 39.6696 7.39474 36.5046 4.87223L35.9546 5.62988L35.3855 6.48429Z" fill="var(--fill-0, #D2D1D1)"/>
<path d="M10.0774 3.71988C13.3831 1.52475 17.3019 0.180688 21.5217 0V1.96034C17.7314 2.1382 14.2097 3.34418 11.2287 5.30596L10.0774 3.71988Z" fill="var(--fill-0, #D2D1D1)"/>
<path d="M23.4783 0V1.96034C27.2686 2.1382 30.7903 3.34418 33.7713 5.30597L34.9226 3.71988C31.6169 1.52475 27.6981 0.180689 23.4783 0Z" fill="var(--fill-0, #D2D1D1)"/>
<path d="M43.0435 22.5C43.0435 24.3749 42.7928 26.1912 42.3231 27.9172L44.1863 28.5231C44.7166 26.606 45 24.5861 45 22.5C45 20.4138 44.7166 18.3939 44.1862 16.4766L42.323 17.0826C42.7928 18.8086 43.0435 20.625 43.0435 22.5Z" fill="var(--fill-0, #D2D1D1)"/>
<path d="M41.7189 29.7798C40.4083 33.2443 38.1895 36.262 35.3534 38.5416L36.5047 40.1277C39.6697 37.6051 42.14 34.2465 43.5821 30.3858L41.7189 29.7798Z" fill="var(--fill-0, #D2D1D1)"/>
<path d="M33.7715 39.694C30.7904 41.6558 27.2686 42.8618 23.4783 43.0397V45C27.6982 44.8193 31.617 43.4752 34.9227 41.28L33.7715 39.694Z" fill="var(--fill-0, #D2D1D1)"/>
<path d="M21.5217 43.0397C17.7314 42.8618 14.2096 41.6558 11.2286 39.694L10.0773 41.2801C13.3831 43.4752 17.3019 44.8193 21.5217 45V43.0397Z" fill="var(--fill-0, #D2D1D1)"/>
<path d="M9.64663 38.5416C6.81049 36.262 4.59172 33.2444 3.28115 29.7799L1.41794 30.3859C2.86003 34.2466 5.33034 37.6052 8.49534 40.1277L9.64663 38.5416Z" fill="var(--fill-0, #D2D1D1)"/>
<path d="M1.95652 22.5C1.95652 20.625 2.20725 18.8086 2.67698 17.0826L0.813766 16.4766C0.283399 18.3939 0 20.4138 0 22.5C0 24.5861 0.283378 26.606 0.813705 28.5232L2.67692 27.9172C2.20723 26.1912 1.95652 24.3749 1.95652 22.5Z" fill="var(--fill-0, #D2D1D1)"/>
<path d="M3.28119 15.22C4.59179 11.7555 6.81058 8.73791 9.64674 6.45831L8.49545 4.87223C5.33043 7.39474 2.86009 10.7533 1.41798 14.614L3.28119 15.22Z" fill="var(--fill-0, #D2D1D1)"/>
</g>
</svg>
