<svg preserveAspectRatio="none" width="100%" height="100%" overflow="visible" style="display: block;" viewBox="0 0 18 18" fill="none" xmlns="http://www.w3.org/2000/svg">
<g id="business-package-side">
<path id="Vector (Stroke)" fill-rule="evenodd" clip-rule="evenodd" d="M8.71873 1.51383C8.89277 1.41336 9.10719 1.41336 9.28122 1.51383L15.3427 5.01333C15.5168 5.11381 15.624 5.29951 15.624 5.50048V12.4995C15.624 12.7004 15.5168 12.8861 15.3427 12.9866L9.28122 16.4861C9.10719 16.5866 8.89277 16.5866 8.71873 16.4861L2.65723 12.9866C2.48319 12.8861 2.37598 12.7004 2.37598 12.4995V5.50048C2.37598 5.29951 2.48319 5.11381 2.65723 5.01333L8.71873 1.51383ZM3.50098 6.47474V12.1747L8.43748 15.0247V9.32474L3.50098 6.47474ZM9.56248 9.32474V15.0247L14.499 12.1747V6.47474L12.9495 7.36932V10.0657C12.9495 10.3764 12.6976 10.6282 12.387 10.6282C12.0763 10.6282 11.8245 10.3764 11.8245 10.0657V8.01882L9.56248 9.32474ZM12.3868 6.39513L13.9365 5.50048L8.99998 2.65049L7.45022 3.54521L12.3868 6.39513ZM6.32518 4.19473L11.2618 7.04465L8.99998 8.35046L4.0635 5.50048L6.32518 4.19473Z" fill="var(--fill-0, #A7A5A5)"/>
</g>
</svg>
