<svg preserveAspectRatio="none" width="100%" height="100%" overflow="visible" style="display: block;" viewBox="0 0 24 24" fill="none" xmlns="http://www.w3.org/2000/svg">
<g id="Service icon">
<path id="Vector (Stroke)" fill-rule="evenodd" clip-rule="evenodd" d="M12 3.53846C7.32682 3.53846 3.53846 7.32682 3.53846 12C3.53846 16.6732 7.32682 20.4615 12 20.4615C16.6732 20.4615 20.4615 16.6732 20.4615 12C20.4615 7.32682 16.6732 3.53846 12 3.53846ZM2 12C2 6.47715 6.47715 2 12 2C17.5228 2 22 6.47715 22 12C22 17.5228 17.5228 22 12 22C6.47715 22 2 17.5228 2 12ZM12 6.77235C12.4248 6.77235 12.7692 7.11674 12.7692 7.54158V11.5093L15.4024 12.7336C15.7876 12.9127 15.9547 13.3702 15.7756 13.7554C15.5965 14.1407 15.139 14.3078 14.7538 14.1287L11.6757 12.6975C11.4043 12.5714 11.2308 12.2993 11.2308 12V7.54158C11.2308 7.11674 11.5752 6.77235 12 6.77235Z" fill="var(--fill-0, #A7A5A5)"/>
</g>
</svg>
