<svg preserveAspectRatio="none" width="100%" height="100%" overflow="visible" style="display: block;" viewBox="0 0 24 24" fill="none" xmlns="http://www.w3.org/2000/svg">
<g id="Compare Icon">
<path id="Vector (Stroke)" fill-rule="evenodd" clip-rule="evenodd" d="M5.66705 3.41801C4.42426 3.41801 3.41705 4.42523 3.41705 5.66801V18.332C3.41705 19.5748 4.42426 20.582 5.66705 20.582H18.3331C19.5758 20.582 20.5833 19.5748 20.5841 18.3316V5.66801C20.5841 4.42523 19.5768 3.41801 18.3341 3.41801H5.66705ZM1.91705 5.66801C1.91705 3.5968 3.59584 1.91801 5.66705 1.91801H18.3341C20.4053 1.91801 22.0841 3.5968 22.0841 5.66801V18.332C22.0828 20.4028 20.4044 22.082 18.3331 22.082H5.66705C3.59584 22.082 1.91705 20.4032 1.91705 18.332V5.66801ZM12.0001 7.25101C12.4143 7.25101 12.7501 7.5868 12.7501 8.00101V15.999C12.7501 16.4132 12.4143 16.749 12.0001 16.749C11.5858 16.749 11.2501 16.4132 11.2501 15.999V8.00101C11.2501 7.5868 11.5858 7.25101 12.0001 7.25101ZM16.0001 10.25C16.4143 10.25 16.7501 10.5858 16.7501 11L16.7501 15.999C16.7501 16.4132 16.4143 16.749 16.0001 16.749C15.5858 16.749 15.2501 16.4132 15.2501 15.999L15.2501 11C15.2501 10.5858 15.5858 10.25 16.0001 10.25ZM8.00005 12.583C8.41426 12.583 8.75005 12.9188 8.75005 13.333V15.999C8.75005 16.4132 8.41426 16.749 8.00005 16.749C7.58584 16.749 7.25005 16.4132 7.25005 15.999V13.333C7.25005 12.9188 7.58584 12.583 8.00005 12.583Z" fill="var(--fill-0, #A7A5A5)"/>
</g>
</svg>
