<svg preserveAspectRatio="none" width="100%" height="100%" overflow="visible" style="display: block;" viewBox="0 0 88 28" fill="none" xmlns="http://www.w3.org/2000/svg">
<g id="Combined Shape Copy 3" filter="url(#filter0_d_0_170)">
<path d="M19.8125 3C25.3663 3.00026 29.8682 7.47728 29.8682 13C29.8682 18.5227 25.3663 22.9997 19.8125 23H4V3H19.8125ZM56.8984 20.5117C56.8984 21.5134 56.2919 22.4162 55.3613 22.7998C55.0531 22.9265 54.729 22.9883 54.4082 22.9883C53.7602 22.9884 53.1239 22.7364 52.6475 22.2627L36.0352 10.3232V23H31.0537V5.48828C31.0537 4.48692 31.6604 3.58361 32.5908 3.2002C33.5217 2.81687 34.5932 3.02887 35.3057 3.7373L51.917 15.6768V3H56.8984V20.5117ZM80.1963 3.01172C81.5717 3.01172 82.6875 4.12059 82.6875 5.48828C82.6874 6.85612 81.5716 7.96484 80.1963 7.96484H64.4258C63.7146 7.96484 63.1357 8.54011 63.1357 9.24707C63.1358 9.95398 63.7146 10.5293 64.4258 10.5293H77.7314V10.5205C78.5765 10.5205 79.3976 10.686 80.1719 11.0117C80.9187 11.3258 81.5892 11.775 82.1641 12.3467C82.7389 12.9183 83.19 13.5848 83.5059 14.3271C83.8335 15.0975 84 15.9144 84 16.7549C84 17.5951 83.8335 18.4116 83.5059 19.1816C83.19 19.9242 82.7389 20.5905 82.1641 21.1621C81.5892 21.7338 80.9187 22.183 80.1719 22.4971C79.3976 22.8229 78.5766 22.9882 77.7314 22.9883H60.6455C59.2702 22.9882 58.1553 21.8796 58.1553 20.5117C58.1553 19.1438 59.2701 18.0352 60.6455 18.0352H77.7314C78.4412 18.035 79.0185 17.4604 79.0186 16.7549C79.0186 16.0488 78.4413 15.4748 77.7314 15.4746V15.4824H64.4258C63.5803 15.4824 62.7583 15.3171 61.9834 14.9912C61.2367 14.6769 60.5662 14.2281 59.9912 13.6562C59.4163 13.0846 58.9643 12.4177 58.6484 11.6748C58.3208 10.9046 58.1553 10.0877 58.1553 9.24707C58.1553 8.40667 58.3209 7.58955 58.6484 6.81934C58.9643 6.07672 59.4164 5.40979 59.9912 4.83789C60.5662 4.26607 61.2367 3.81702 61.9834 3.50293C62.7583 3.17709 63.5803 3.01172 64.4258 3.01172H80.1963ZM9.00586 18.0234H19.8125C21.1618 18.0234 22.4305 17.5004 23.3848 16.5518C24.3387 15.6031 24.8643 14.3417 24.8643 13C24.8642 11.6583 24.3387 10.3971 23.3848 9.44824C22.4305 8.49959 21.1618 7.97656 19.8125 7.97656H9.00586V18.0234Z" fill="var(--fill-0, white)"/>
</g>
<defs>
<filter id="filter0_d_0_170" x="0" y="0" width="88" height="28" filterUnits="userSpaceOnUse" color-interpolation-filters="sRGB">
<feFlood flood-opacity="0" result="BackgroundImageFix"/>
<feColorMatrix in="SourceAlpha" type="matrix" values="0 0 0 0 0 0 0 0 0 0 0 0 0 0 0 0 0 0 127 0" result="hardAlpha"/>
<feOffset dy="1"/>
<feGaussianBlur stdDeviation="2"/>
<feComposite in2="hardAlpha" operator="out"/>
<feColorMatrix type="matrix" values="0 0 0 0 0 0 0 0 0 0 0 0 0 0 0 0 0 0 0.06 0"/>
<feBlend mode="normal" in2="BackgroundImageFix" result="effect1_dropShadow_0_170"/>
<feBlend mode="normal" in="SourceGraphic" in2="effect1_dropShadow_0_170" result="shape"/>
</filter>
</defs>
</svg>
