<svg preserveAspectRatio="none" width="100%" height="100%" overflow="visible" style="display: block;" viewBox="0 0 20 20" fill="none" xmlns="http://www.w3.org/2000/svg">
<g id="action-heart-outlined">
<path id="Vector (Stroke)" fill-rule="evenodd" clip-rule="evenodd" d="M1.875 7.8076C1.875 5.05868 3.88139 2.70833 6.49937 2.70833C7.91594 2.70833 9.1617 3.40507 10 4.47372C10.8382 3.40511 12.0838 2.70833 13.4997 2.70833C16.1186 2.70833 18.125 5.05973 18.125 7.8076C18.125 8.91277 17.7074 9.97608 17.1043 10.9403C16.4997 11.9069 15.6858 12.8111 14.8346 13.6105C13.1327 15.209 11.2158 16.4498 10.3251 16.9922C10.1253 17.1138 9.87439 17.1137 9.67471 16.992C8.78424 16.4492 6.86732 15.2084 5.16542 13.6101C4.31425 12.8108 3.50027 11.9067 2.89573 10.9402C2.29261 9.97602 1.875 8.91278 1.875 7.8076ZM6.49937 3.95833C4.69986 3.95833 3.125 5.61354 3.125 7.8076C3.125 8.59824 3.42598 9.43081 3.95548 10.2773C4.48356 11.1215 5.21622 11.943 6.02114 12.699C7.45055 14.0414 9.05552 15.1288 10.0001 15.7232C10.9446 15.1293 12.5495 14.0418 13.9788 12.6994C14.7838 11.9434 15.5164 11.1218 16.0445 10.2775C16.574 9.43089 16.875 8.59825 16.875 7.8076C16.875 5.61459 15.3001 3.95833 13.4997 3.95833C12.2669 3.95833 11.1536 4.72124 10.5599 5.91796C10.4544 6.13066 10.2374 6.2652 10 6.2652C9.76256 6.2652 9.54563 6.13066 9.44011 5.91796C8.84646 4.72132 7.73317 3.95833 6.49937 3.95833Z" fill="var(--fill-0, #A7A5A5)"/>
</g>
</svg>
