<svg preserveAspectRatio="none" width="100%" height="100%" overflow="visible" style="display: block;" viewBox="0 0 16 16" fill="none" xmlns="http://www.w3.org/2000/svg">
<g id="system-info-circle">
<path id="Vector (Stroke)" fill-rule="evenodd" clip-rule="evenodd" d="M8 2.35897C4.88455 2.35897 2.35897 4.88455 2.35897 8C2.35897 11.1155 4.88455 13.641 8 13.641C11.1155 13.641 13.641 11.1155 13.641 8C13.641 4.88455 11.1155 2.35897 8 2.35897ZM1.33333 8C1.33333 4.3181 4.3181 1.33333 8 1.33333C11.6819 1.33333 14.6667 4.3181 14.6667 8C14.6667 11.6819 11.6819 14.6667 8 14.6667C4.3181 14.6667 1.33333 11.6819 1.33333 8ZM8.26909 5.10344C8.51019 5.25205 8.58516 5.56797 8.43655 5.80907L8.43516 5.81133C8.28654 6.05243 7.97062 6.12741 7.72952 5.9788C7.48842 5.83018 7.41344 5.51426 7.56206 5.27316L7.56345 5.2709C7.71206 5.0298 8.02799 4.95482 8.26909 5.10344ZM6.2475 7.88057C6.2475 7.59735 6.47709 7.36775 6.76032 7.36775H7.99986C8.28308 7.36775 8.51268 7.59735 8.51268 7.88057V10.4635C8.51268 10.7467 8.28308 10.9763 7.99986 10.9763C7.71663 10.9763 7.48704 10.7467 7.48704 10.4635V8.39339H6.76032C6.47709 8.39339 6.2475 8.16379 6.2475 7.88057Z" fill="var(--fill-0, #FF544B)"/>
</g>
</svg>
