<svg preserveAspectRatio="none" width="100%" height="100%" overflow="visible" style="display: block;" viewBox="0 0 16 16" fill="none" xmlns="http://www.w3.org/2000/svg">
<g id="data-map-pin">
<g id="Vector (Stroke)">
<path d="M7.72063 14.4202C7.72063 14.4202 7.72094 14.4204 7.9916 14L8.26157 14.4209C8.09681 14.5265 7.88522 14.5262 7.72063 14.4202Z" fill="var(--fill-0, #A7A5A5)"/>
<path fill-rule="evenodd" clip-rule="evenodd" d="M8 4.16667C6.61929 4.16667 5.5 5.28595 5.5 6.66667C5.5 8.04738 6.61929 9.16667 8 9.16667C9.38071 9.16667 10.5 8.04738 10.5 6.66667C10.5 5.28595 9.38071 4.16667 8 4.16667ZM6.5 6.66667C6.5 5.83824 7.17157 5.16667 8 5.16667C8.82843 5.16667 9.5 5.83824 9.5 6.66667C9.5 7.49509 8.82843 8.16667 8 8.16667C7.17157 8.16667 6.5 7.49509 6.5 6.66667Z" fill="var(--fill-0, #A7A5A5)"/>
<path fill-rule="evenodd" clip-rule="evenodd" d="M7.72063 14.4202L7.9916 14C8.26157 14.4209 8.26229 14.4204 8.26229 14.4204L8.26343 14.4197L8.26698 14.4174L8.27906 14.4095C8.28929 14.4028 8.30384 14.3932 8.32242 14.3807C8.35956 14.3558 8.41283 14.3196 8.47993 14.2724C8.61408 14.1782 8.8038 14.0402 9.0306 13.8624C9.48342 13.5073 10.0881 12.9902 10.6943 12.3419C11.8927 11.0604 13.1667 9.1916 13.1667 7.00032C13.1667 3.99545 10.8856 1.5 8 1.5C5.11437 1.5 2.83333 3.99545 2.83333 7.00032C2.83333 9.19094 4.10238 11.0595 5.29665 12.3413C5.90074 12.9896 6.5033 13.5067 6.95454 13.8618C7.18054 14.0397 7.36961 14.1777 7.5033 14.2719C7.57017 14.3191 7.62326 14.3554 7.66028 14.3803C7.67879 14.3927 7.69329 14.4023 7.7035 14.409L7.71554 14.4169L7.71909 14.4192L7.72063 14.4202ZM3.83333 7.00032C3.83333 4.48157 5.73058 2.5 8 2.5C10.2694 2.5 12.1667 4.48157 12.1667 7.00032C12.1667 8.80969 11.1031 10.4407 9.96393 11.6589C9.4014 12.2604 8.83732 12.7431 8.41356 13.0754C8.24822 13.2051 8.10488 13.3113 7.99213 13.3923C7.8799 13.3114 7.73734 13.2053 7.57296 13.076C7.15077 12.7437 6.58876 12.2611 6.02828 11.6595C4.89342 10.4416 3.83333 8.81035 3.83333 7.00032Z" fill="var(--fill-0, #A7A5A5)"/>
</g>
</g>
</svg>
