<svg preserveAspectRatio="none" width="100%" height="100%" overflow="visible" style="display: block;" viewBox="0 0 24 24" fill="none" xmlns="http://www.w3.org/2000/svg">
<g id="Logo">
<path id="image 2 (Traced)" fill-rule="evenodd" clip-rule="evenodd" d="M9.85988 0.141514C5.1673 1.05797 1.4665 4.52016 0.314001 9.07199C-0.104153 10.7238 -0.104769 13.2627 0.31277 14.9183C1.3164 18.8981 4.49462 22.2581 8.38888 23.4568C15.2676 25.5742 22.4187 21.2924 23.7814 14.2403C25.026 7.79936 20.8332 1.56773 14.3318 0.195719C13.2127 -0.0405545 10.9333 -0.0681155 9.85988 0.141514Z" fill="var(--fill-0, #FC8507)"/>
<g id="Combined Shape Copy 3">
<path fill-rule="evenodd" clip-rule="evenodd" d="M5.95312 10C7.34157 10.0001 8.46704 11.1193 8.46704 12.5C8.46704 13.8807 7.34157 14.9999 5.95312 15H2V10H5.95312ZM3.25146 13.7559H5.95312C6.29046 13.7559 6.60763 13.6251 6.84619 13.3879C7.08467 13.1508 7.21606 12.8354 7.21606 12.5C7.21605 12.1646 7.08467 11.8493 6.84619 11.6121C6.60763 11.3749 6.29046 11.2441 5.95312 11.2441H3.25146V13.7559Z" fill="var(--fill-0, white)"/>
<path d="M15.2246 14.3779C15.2246 14.6284 15.073 14.8541 14.8403 14.95C14.7633 14.9816 14.6822 14.9971 14.6021 14.9971C14.44 14.9971 14.281 14.9341 14.1619 14.8157L10.0088 11.8308V15H8.76343V10.6221C8.76343 10.3717 8.9151 10.1459 9.14771 10.05C9.38042 9.95422 9.64831 10.0072 9.82642 10.1843L13.9792 13.1692V10H15.2246V14.3779Z" fill="var(--fill-0, white)"/>
<path d="M21.0491 10.0029C21.3929 10.0029 21.6719 10.2801 21.6719 10.6221C21.6718 10.964 21.3929 11.2412 21.0491 11.2412H17.1064C16.9286 11.2412 16.7839 11.385 16.7839 11.5618C16.784 11.7385 16.9287 11.8823 17.1064 11.8823H20.4329V11.8801C20.6441 11.8801 20.8494 11.9215 21.043 12.0029C21.2297 12.0815 21.3973 12.1937 21.541 12.3367C21.6847 12.4796 21.7975 12.6462 21.8765 12.8318C21.9584 13.0244 22 13.2286 22 13.4387C22 13.6488 21.9584 13.8529 21.8765 14.0454C21.7975 14.2311 21.6847 14.3976 21.541 14.5405C21.3973 14.6834 21.2297 14.7957 21.043 14.8743C20.8494 14.9557 20.6441 14.9971 20.4329 14.9971H16.1614C15.8175 14.9971 15.5388 14.7199 15.5388 14.3779C15.5388 14.0359 15.8175 13.7588 16.1614 13.7588H20.4329C20.6103 13.7587 20.7546 13.6151 20.7546 13.4387C20.7546 13.2622 20.6103 13.1187 20.4329 13.1187V13.1206H17.1064C16.8951 13.1206 16.6896 13.0793 16.4958 12.9978C16.3092 12.9192 16.1416 12.807 15.9978 12.6641C15.8541 12.5211 15.7411 12.3544 15.6621 12.1687C15.5802 11.9761 15.5388 11.7719 15.5388 11.5618C15.5388 11.3517 15.5802 11.1474 15.6621 10.9548C15.7411 10.7692 15.8541 10.6024 15.9978 10.4595C16.1416 10.3165 16.3092 10.2043 16.4958 10.1257C16.6896 10.0443 16.8951 10.0029 17.1064 10.0029H21.0491Z" fill="var(--fill-0, white)"/>
</g>
</g>
</svg>
