<svg preserveAspectRatio="none" width="100%" height="100%" overflow="visible" style="display: block;" viewBox="0 0 28 17.5541" fill="none" xmlns="http://www.w3.org/2000/svg">
<g id="assets-/-logo-/-mastercard-/-symbol">
<path id="Fill-1" fill-rule="evenodd" clip-rule="evenodd" d="M10.2146 15.6773H17.7863V1.87689H10.2146V15.6773Z" fill="var(--fill-0, #FF5F00)"/>
<path id="Fill-2" fill-rule="evenodd" clip-rule="evenodd" d="M10.695 8.77707C10.693 7.44938 10.9894 6.13855 11.5619 4.94332C12.1344 3.74808 12.968 2.69962 14 1.87689C12.4786 0.659319 10.5936 -0.00206057 8.6523 0.000529567C3.87357 0.000529567 0 3.92999 0 8.77707C0 13.6241 3.87357 17.5541 8.6523 17.5541C10.5937 17.5565 12.4786 16.8949 14 15.6772C12.968 14.8545 12.1344 13.8061 11.5619 12.6108C10.9894 11.4156 10.693 10.1048 10.695 8.77707Z" fill="var(--fill-0, #EB001B)"/>
<path id="Fill-4" fill-rule="evenodd" clip-rule="evenodd" d="M28 8.77701C28 13.6241 24.126 17.5535 19.3477 17.5535C17.4064 17.5561 15.5215 16.8948 14 15.6772C15.0305 14.8531 15.8631 13.8044 16.4355 12.6095C17.0079 11.4145 17.3052 10.1044 17.3052 8.77701C17.3052 7.44965 17.0079 6.13948 16.4355 4.94456C15.8631 3.74963 15.0305 2.70089 14 1.87683C15.5214 0.65913 17.4064 -0.00240745 19.3477 1.84499e-05C24.126 1.84499e-05 28 3.92993 28 8.77701Z" fill="var(--fill-0, #F79E1B)"/>
</g>
</svg>
