<svg preserveAspectRatio="none" width="100%" height="100%" overflow="visible" style="display: block;" viewBox="0 0 40 11.0001" fill="none" xmlns="http://www.w3.org/2000/svg">
<g id="Logo">
<path id="Vector" d="M0.000468248 0.00723347C1.22548 0.0106689 2.4506 0.00895131 3.6762 0.00780617C4.25308 0.000591738 4.83067 0.290887 5.14546 0.765207C5.43854 1.17116 5.55004 1.6622 5.69429 2.12976C6.13784 3.58742 6.57458 5.04726 7.0193 6.50491C7.02681 6.63672 7.22681 6.68711 7.26578 6.54694C7.71977 5.07531 8.15769 3.59922 8.60816 2.12644C8.76274 1.60735 8.89607 1.05619 9.25629 0.629506C9.48786 0.353182 9.81192 0.156446 10.1642 0.0644908C10.4642 -0.0168146 10.7785 0.0139902 11.0859 0.00895156C12.1616 0.0128451 13.2378 1.91929e-05 14.3135 0.0157077C14.306 3.67709 14.3175 7.33858 14.3071 10.9994C13.1435 10.9922 11.9794 11.0096 10.8158 10.9905C10.8158 8.84273 10.821 6.69501 10.8135 4.54717C10.8061 4.35604 10.4819 4.37231 10.46 4.55221C9.76709 6.69776 9.06955 8.84216 8.38691 10.9905C7.56519 11.009 6.74242 10.9943 5.92011 10.9978C5.22821 8.85224 4.54158 6.70508 3.84287 4.56183C3.81352 4.38467 3.5992 4.37849 3.48371 4.48213C3.48606 6.65229 3.48089 8.82258 3.48606 10.9927C2.32419 11.0067 1.16233 10.9933 0.000468248 10.9994C-0.000118611 7.33515 -0.000118611 3.67148 0.000468248 0.00723347ZM15.9022 0.0139901C17.0635 -0.00341618 18.226 0.022922 19.3872 1.90735e-05C19.4057 2.17351 19.3896 4.34757 19.3953 6.52117C19.4947 6.60809 19.6775 6.635 19.7384 6.49094C20.5118 4.90938 21.2817 3.32621 22.0546 1.74408C22.2995 1.25292 22.4982 0.720431 22.8976 0.323523C23.0762 0.158622 23.2986 -0.00112593 23.5572 0.0100965C24.7415 0.0106691 25.9258 0.00276762 27.1106 0.0139901C27.1123 3.67377 27.1123 7.33354 27.1106 10.9933C25.9488 11.0023 24.7863 11.0017 23.6239 10.9938C23.6233 8.8259 23.6285 6.65745 23.6215 4.48945C23.6187 4.30337 23.2957 4.31848 23.2625 4.48556C22.5338 6.05418 21.8081 7.62395 21.0801 9.19257C20.856 9.6685 20.6433 10.1591 20.3089 10.574C20.1228 10.8049 19.851 11.0123 19.5344 10.9984C18.3242 10.9978 17.1135 11 15.9034 10.9972C15.9034 7.33629 15.9052 3.67491 15.9022 0.0139901ZM28.8097 5.02985C32.4596 5.0058 36.1107 5.02985 39.7607 5.01817C39.6377 5.50864 39.3125 5.93085 38.9684 6.29913C38.2891 7.0184 37.3128 7.45745 36.3095 7.48321C34.9764 7.48997 33.6428 7.48207 32.3092 7.48711C32.3011 8.65825 32.3092 9.82882 32.3056 11C31.1427 10.9949 29.9791 11.0034 28.8155 10.9949C28.8097 9.00695 28.8212 7.0184 28.8097 5.02985Z" fill="var(--fill-0, #006848)"/>
<path id="Vector_2" d="M28.3659 0.0134361C31.093 0.0101151 33.82 0.00782503 36.5471 0.0106879C37.2625 0.0605018 37.9532 0.343697 38.5198 0.768661C39.3427 1.39368 39.8977 2.35297 39.9891 3.3694C40.0103 3.73539 40.0029 4.10436 39.9472 4.46703C38.2761 4.47653 36.6052 4.4676 34.9342 4.46989C34.3607 4.46485 33.7839 4.49279 33.2144 4.41046C31.9313 4.25174 30.666 3.73036 29.7569 2.81596C28.9904 2.06646 28.5181 1.05621 28.3659 0.0134361Z" fill="var(--fill-0, #00AFFF)"/>
</g>
</svg>
