<svg preserveAspectRatio="none" width="100%" height="100%" overflow="visible" style="display: block;" viewBox="0 0 20 20" fill="none" xmlns="http://www.w3.org/2000/svg">
<g id="NavArrow">
<path id="Vector (Stroke)" fill-rule="evenodd" clip-rule="evenodd" d="M14.5637 2.09182C14.7754 2.1977 14.9092 2.41411 14.9092 2.65083V17.0283C14.9092 17.2973 14.737 17.5362 14.4818 17.6213C14.2266 17.7063 13.9456 17.6186 13.7842 17.4033L9.65834 11.9025H2.78083C2.51181 11.9025 2.27297 11.7304 2.1879 11.4751C2.10283 11.2199 2.19063 10.9389 2.40586 10.7775L13.9092 2.15082C14.0986 2.00879 14.352 1.98595 14.5637 2.09182ZM4.65598 10.6525H9.97083C10.1676 10.6525 10.3528 10.7451 10.4708 10.9025L13.6592 15.1534V3.90076L4.65598 10.6525Z" fill="var(--fill-0, #333333)"/>
</g>
</svg>
