<svg preserveAspectRatio="none" width="100%" height="100%" overflow="visible" style="display: block;" viewBox="0 0 18 18" fill="none" xmlns="http://www.w3.org/2000/svg">
<g id="product-camera">
<path id="Vector (Stroke)" fill-rule="evenodd" clip-rule="evenodd" d="M6.06128 3.30732C6.15728 3.11875 6.35097 3 6.56257 3H8.94544C8.95458 3 8.96368 3.00022 8.97272 3.00065C8.98176 3.00022 8.99085 3 9 3H11.0625C11.2741 3 11.4678 3.11875 11.5638 3.30732L12.5413 5.22755C12.5466 5.23454 12.5528 5.23976 12.5589 5.24333C12.5668 5.24788 12.5748 5.24991 12.5824 5.25H13.6605C13.9851 5.24621 14.307 5.30831 14.6073 5.43241C14.9088 5.55701 15.1822 5.74145 15.4116 5.97435C15.641 6.20722 15.8218 6.48386 15.9441 6.78773C16.0664 7.09159 16.1278 7.41692 16.125 7.74473C16.1248 7.76586 16.1235 7.7867 16.121 7.80721C16.1237 7.82943 16.1251 7.85205 16.1251 7.875V12.3059V12.3131C16.1168 12.9659 15.8552 13.591 15.3942 14.0509C14.9335 14.5105 14.3109 14.7676 13.6617 14.7626H3.96345C3.31429 14.7676 2.69164 14.5105 2.23093 14.0509C1.76996 13.591 1.50841 12.9659 1.50012 12.3131L1.50003 12.3059L1.50007 7.74215C1.49759 7.41521 1.55899 7.09079 1.68096 6.78773C1.80326 6.48386 1.98413 6.20722 2.21352 5.97435C2.44293 5.74145 2.71626 5.55701 3.01777 5.43241C3.31807 5.30831 3.63996 5.24621 3.96459 5.25H5.04267C5.05026 5.24991 5.05831 5.24788 5.06615 5.24333C5.07231 5.23976 5.07845 5.23454 5.08378 5.22755L6.06128 3.30732ZM8.94544 4.125C8.95458 4.125 8.96368 4.12478 8.97272 4.12435C8.98176 4.12478 8.99085 4.125 9 4.125H10.7177L11.5501 5.7603C11.5552 5.77024 11.5606 5.78003 11.5662 5.78965C11.6696 5.96595 11.8167 6.11329 11.9942 6.21633C12.1719 6.31943 12.3734 6.37436 12.5793 6.375L12.5811 6.375H13.664H13.6715C13.8446 6.37269 14.0166 6.40558 14.1777 6.47213C14.3387 6.53868 14.4858 6.63766 14.6101 6.76382C14.7344 6.89001 14.8333 7.04084 14.9005 7.20775C14.9677 7.37469 15.0016 7.55399 15 7.73504C14.9998 7.75964 15.0012 7.78389 15.0041 7.80768C15.0014 7.82975 15.0001 7.85222 15.0001 7.875V12.3021C14.9946 12.6631 14.8495 13.0052 14.5996 13.2545C14.3493 13.5042 14.0146 13.6407 13.6691 13.6376L13.664 13.6376H3.96109L3.95608 13.6376C3.61059 13.6407 3.27579 13.5042 3.02551 13.2545C2.77561 13.0052 2.6305 12.6631 2.62507 12.302V7.73988L2.62505 7.73504C2.62349 7.55399 2.65743 7.37469 2.72461 7.20775C2.79179 7.04084 2.8907 6.89001 3.01499 6.76382C3.13927 6.63766 3.28639 6.53868 3.44744 6.47213C3.60846 6.40558 3.78051 6.37264 3.95359 6.37495L3.96109 6.375H5.04404L5.04578 6.375C5.25164 6.37436 5.45323 6.31943 5.63086 6.21633C5.80841 6.11329 5.95552 5.96595 6.0589 5.78965C6.06454 5.78003 6.06989 5.77024 6.07496 5.7603L6.90741 4.125H8.94544ZM8.18011 7.99718C8.38103 7.91339 8.59486 7.87215 8.80963 7.87515C9.12026 7.87949 9.3756 7.6312 9.37994 7.32057C9.38428 7.00994 9.13599 6.7546 8.82536 6.75026C8.45563 6.7451 8.08915 6.8162 7.74709 6.95886C7.40509 7.10149 7.09498 7.31249 6.83381 7.57853C6.57268 7.84451 6.36551 8.16034 6.22293 8.50733C6.08037 8.85428 6.00486 9.22636 6.00012 9.6025C5.99994 9.61672 6.0003 9.63093 6.0012 9.64512C6.04754 10.3775 6.3585 11.069 6.87813 11.5778C7.39851 12.0873 8.08965 12.375 8.81257 12.375C9.53549 12.375 10.2266 12.0873 10.747 11.5778C11.2666 11.069 11.5776 10.3775 11.6239 9.64512C11.6436 9.33508 11.4081 9.06784 11.0981 9.04822C10.7881 9.0286 10.5208 9.26403 10.5012 9.57407C10.4719 10.0363 10.2759 10.4646 9.95997 10.7739C9.64474 11.0826 9.23417 11.25 8.81257 11.25C8.39097 11.25 7.9804 11.0826 7.66517 10.7739C7.35407 10.4693 7.15926 10.0494 7.12542 9.59538C7.13089 9.36745 7.17792 9.14321 7.26351 8.93489C7.35176 8.72012 7.47894 8.52725 7.6366 8.36665C7.79421 8.20611 7.97913 8.081 8.18011 7.99718Z" fill="var(--fill-0, #A7A5A5)"/>
</g>
</svg>
