<svg preserveAspectRatio="none" width="100%" height="100%" overflow="visible" style="display: block;" viewBox="0 0 18 18" fill="none" xmlns="http://www.w3.org/2000/svg">
<g id="business-parcel-locker">
<path id="Vector (Stroke)" fill-rule="evenodd" clip-rule="evenodd" d="M3.6 2.25C2.85442 2.25 2.25 2.85442 2.25 3.6V14.4C2.25 15.1456 2.85442 15.75 3.6 15.75H14.4C15.1456 15.75 15.75 15.1456 15.75 14.4V3.6C15.75 2.85442 15.1456 2.25 14.4 2.25H3.6ZM14.4 3.2625H9.3375V8.6625H14.7375V3.6C14.7375 3.4136 14.5864 3.2625 14.4 3.2625ZM14.7375 9.675H9.3375V14.7375H14.4C14.5864 14.7375 14.7375 14.5864 14.7375 14.4V9.675ZM8.325 8.6625V3.2625H3.6C3.4136 3.2625 3.2625 3.4136 3.2625 3.6V8.6625H8.325ZM3.2625 9.675H8.325V14.7375H3.6C3.4136 14.7375 3.2625 14.5864 3.2625 14.4V9.675Z" fill="var(--fill-0, #A7A5A5)"/>
</g>
</svg>
