<svg preserveAspectRatio="none" width="100%" height="100%" overflow="visible" style="display: block;" viewBox="0 0 18 18" fill="none" xmlns="http://www.w3.org/2000/svg">
<g id="product-custom-film">
<path id="Vector (Stroke)" fill-rule="evenodd" clip-rule="evenodd" d="M12.91 2.03603C14.6621 2.03603 16.0825 3.45637 16.0825 5.20853L16.0825 12.91C16.0825 14.6622 14.6621 16.0825 12.91 16.0825L7.96398 16.0825C7.81478 16.0825 7.67169 16.0233 7.5662 15.9177L2.14641 10.4972C2.03428 10.3944 1.96398 10.2467 1.96398 10.0825C1.96398 10.0727 1.96423 10.0629 1.96473 10.0532L1.96473 5.20853C1.96473 3.45637 3.38507 2.03603 5.13723 2.03603L12.91 2.03603ZM3.88509 10.645L7.40148 14.1619L7.40148 12.3325C7.40148 11.4004 6.64607 10.645 5.71398 10.645L3.88509 10.645ZM8.52648 14.9575L8.52648 12.3325C8.52648 10.7791 7.26739 9.52003 5.71398 9.52003L3.08973 9.52003L3.08973 5.20853C3.08973 4.07769 4.00639 3.16103 5.13723 3.16103L12.91 3.16103C14.0408 3.16103 14.9575 4.07769 14.9575 5.20853L14.9575 12.91C14.9575 14.0409 14.0408 14.9575 12.91 14.9575L8.52648 14.9575Z" fill="var(--fill-0, #A7A5A5)"/>
</g>
</svg>
