<svg preserveAspectRatio="none" width="100%" height="100%" overflow="visible" style="display: block;" viewBox="0 0 13.1769 13.334" fill="none" xmlns="http://www.w3.org/2000/svg">
<g id="Subtract">
<path d="M8.85514 6.7334C9.38847 7.26673 10.1887 7.66699 11.0553 7.66699C11.3219 7.66692 11.655 7.59983 11.9215 7.5332V10.667C11.9215 12.1337 10.7212 13.334 9.25456 13.334H8.58854V11.667C8.58854 10.5625 7.69296 9.66717 6.58854 9.66699C5.48397 9.66699 4.58854 10.5624 4.58854 11.667V13.334H3.92155C2.45488 13.334 1.25456 12.1337 1.25456 10.667V7.5332C1.52115 7.59985 1.8547 7.66696 2.25456 7.66699C3.12122 7.66699 3.92142 7.3334 4.45475 6.7334C4.98808 7.26673 5.78828 7.66699 6.65495 7.66699C7.52159 7.66697 8.32182 7.33338 8.85514 6.7334Z" fill="var(--fill-0, white)"/>
<path d="M9.72135 0C10.9214 0 12.0548 0.800716 12.4548 2.06738L12.988 3.4668C13.1213 3.8668 13.2551 4.33411 13.1217 4.80078C12.855 5.86725 11.9878 6.60059 10.988 6.60059C9.78818 6.60042 8.78794 5.46711 8.78776 4.06738C8.78758 5.46708 7.78829 6.60038 6.58854 6.60059C5.38865 6.60059 4.38853 5.46721 4.38834 4.06738C4.38816 5.46721 3.38804 6.60059 2.18815 6.60059C1.18835 6.60055 0.322162 5.80051 0.0553365 4.80078C-0.0779968 4.33411 0.0548157 3.8668 0.188149 3.4668L0.721352 2.06738C1.12135 0.800716 2.18834 0 3.38834 0H9.72135Z" fill="var(--fill-0, white)"/>
</g>
</svg>
