<svg preserveAspectRatio="none" width="100%" height="100%" overflow="visible" style="display: block;" viewBox="0 0 46 46" fill="none" xmlns="http://www.w3.org/2000/svg">
<g id="level count">
<g id="Subtract">
<path d="M36.1719 6.62839C39.0553 8.9555 41.3113 12.0302 42.6459 15.5582L44.5505 14.9388C43.0764 10.9923 40.5511 7.55907 37.3158 4.98051L36.7536 5.75499L36.1719 6.62839Z" fill="var(--fill-0, #D2D1D1)"/>
<path d="M10.3013 3.80254C13.6805 1.55863 17.6864 0.184704 22 0V2.0039C18.1254 2.18571 14.5255 3.4185 11.4782 5.42387L10.3013 3.80254Z" fill="var(--fill-0, #D2D1D1)"/>
<path d="M24 0V2.0039C27.8746 2.18571 31.4746 3.4185 34.5218 5.42388L35.6987 3.80255C32.3195 1.55863 28.3136 0.184704 24 0Z" fill="var(--fill-0, #D2D1D1)"/>
<path d="M44 23C44 24.9166 43.7437 26.7733 43.2636 28.5376L45.1682 29.157C45.7103 27.1972 46 25.1325 46 23C46 20.8674 45.7103 18.8026 45.1682 16.8428L43.2635 17.4622C43.7437 19.2266 44 21.0833 44 23Z" fill="var(--fill-0, #D2D1D1)"/>
<path d="M42.646 30.4416C41.3063 33.9831 39.0382 37.0678 36.139 39.3981L37.3159 41.0194C40.5512 38.4408 43.0765 35.0076 44.5506 31.061L42.646 30.4416Z" fill="var(--fill-0, #D2D1D1)"/>
<path d="M34.5219 40.576C31.4746 42.5815 27.8746 43.8143 24 43.9961V46C28.3137 45.8153 32.3196 44.4413 35.6988 42.1974L34.5219 40.576Z" fill="var(--fill-0, #D2D1D1)"/>
<path d="M22 43.9961C18.1254 43.8143 14.5254 42.5815 11.4781 40.5761L10.3012 42.1974C13.6805 44.4414 17.6864 45.8153 22 46V43.9961Z" fill="var(--fill-0, #D2D1D1)"/>
<path d="M9.861 39.3981C6.96184 37.0678 4.69376 33.9832 3.35407 30.4417L1.44945 31.0611C2.92358 35.0076 5.44879 38.4408 8.68413 41.0194L9.861 39.3981Z" fill="var(--fill-0, #D2D1D1)"/>
<path d="M2 23C2 21.0833 2.2563 19.2266 2.73646 17.4622L0.831849 16.8428C0.289697 18.8026 0 20.8674 0 23C0 25.1325 0.289675 27.1972 0.831787 29.157L2.7364 28.5376C2.25628 26.7733 2 24.9166 2 23Z" fill="var(--fill-0, #D2D1D1)"/>
<path d="M3.35411 15.5582C4.69383 12.0167 6.96193 8.93208 9.86111 6.60183L8.68424 4.98051C5.44888 7.55907 2.92365 10.9923 1.44949 14.9388L3.35411 15.5582Z" fill="var(--fill-0, #D2D1D1)"/>
</g>
<g id="Subtract_2">
<path d="M36.1501 6.62839C39.0399 8.9555 41.3009 12.0302 42.6385 15.5582L44.5473 14.9388C43.0699 10.9923 40.5391 7.55907 37.2965 4.98051L36.7331 5.75499L36.1501 6.62839Z" fill="var(--fill-0, #FC8507)"/>
<path d="M23.9513 0V2.0039C27.8344 2.18571 31.4424 3.4185 34.4964 5.42388L35.6759 3.80255C32.2892 1.55863 28.2745 0.184704 23.9513 0Z" fill="var(--fill-0, #FC8507)"/>
<path d="M43.9956 23C43.9956 24.9166 43.7387 26.7733 43.2575 28.5376L45.1664 29.157C45.7097 27.1972 46 25.1325 46 23C46 20.8674 45.7097 18.8026 45.1663 16.8428L43.2575 17.4622C43.7387 19.2266 43.9956 21.0833 43.9956 23Z" fill="var(--fill-0, #FC8507)"/>
<path d="M42.6385 30.4416C41.2959 33.9831 39.0228 37.0678 36.1172 39.3981L37.2966 41.0194C40.5392 38.4408 43.07 35.0076 44.5474 31.061L42.6385 30.4416Z" fill="var(--fill-0, #FC8507)"/>
<path d="M34.4965 40.576C31.4425 42.5815 27.8345 43.8143 23.9513 43.9961V46C28.2745 45.8153 32.2893 44.4413 35.676 42.1974L34.4965 40.576Z" fill="var(--fill-0, #FC8507)"/>
<path d="M21.9469 43.9961C18.0637 43.8143 14.4557 42.5815 11.4017 40.5761L10.2222 42.1974C13.6089 44.4413 17.6237 45.8153 21.9469 46V43.9961Z" fill="var(--fill-0, #FC8507)"/>
</g>
</g>
</svg>
