<svg preserveAspectRatio="none" width="100%" height="100%" overflow="visible" style="display: block;" viewBox="0 0 49.9462 28" fill="none" xmlns="http://www.w3.org/2000/svg">
<g id="sbp">
<g id="&#209;&#129;&#208;&#177;&#208;&#191;">
<path id="path66" d="M6.80264e-05 6.09439L3.49373 12.1552V15.8521L0.00415502 21.9011L6.80264e-05 6.09439Z" fill="var(--fill-0, #5B57A2)"/>
<path id="path68" d="M13.4149 9.95021L16.6886 8.00281L23.3884 7.99674L13.4149 13.9267V9.95021Z" fill="var(--fill-0, #D90751)"/>
<path id="path70" d="M13.3959 6.05896L13.4145 14.0833L9.91263 11.995V0L13.3962 6.05896H13.3959Z" fill="var(--fill-0, #FAB718)"/>
<path id="path72" d="M23.3879 7.99657L16.6879 8.00263L13.3959 6.05897L9.91263 0L23.3877 7.99657H23.3879Z" fill="var(--fill-0, #ED6F26)"/>
<path id="path74" d="M13.4145 21.9349V18.0418L9.91263 15.9931L9.91455 28L13.4145 21.9349Z" fill="var(--fill-0, #63B22F)"/>
<path id="path76" d="M16.6798 20.005L3.49349 12.1552L6.80264e-05 6.09439L23.3736 19.9971L16.6796 20.005H16.6798Z" fill="var(--fill-0, #1487C9)"/>
<path id="path78" d="M9.91512 27.9989L13.4146 21.9339L16.6801 20.0042L23.3738 19.9963L9.91512 27.9989Z" fill="var(--fill-0, #017F36)"/>
<path id="path80" d="M0.00329373 21.9018L9.94023 15.9938L6.59947 14.0044L3.49287 15.8529L0.00329373 21.9018Z" fill="var(--fill-0, #984995)"/>
</g>
<g id="Union">
<path fill-rule="evenodd" clip-rule="evenodd" d="M40.0692 11.1425C40.0527 11.1425 38.1331 11.1461 37.8772 11.1461C36.7637 11.1462 35.7528 11.994 35.6114 13.1548C36.2035 12.5932 36.9895 12.2672 37.9423 12.2672C40.0066 12.2673 41.242 13.5459 41.242 15.5145C41.2418 17.5483 39.5671 18.8896 37.3126 18.8896C34.9818 18.8895 33.282 17.4684 33.282 14.2478C33.2822 11.4834 35.0253 9.20773 37.6053 9.1641C38.7346 9.16409 41.1637 9.11015 41.1637 9.11015L40.0692 11.1425ZM37.3267 14.0675C36.4641 14.0675 35.8835 14.6149 35.8834 15.5278C35.8834 16.3869 36.4641 17.014 37.3267 17.014C38.2285 17.0121 38.7441 16.3353 38.7441 15.5138C38.744 14.6011 38.1637 14.0675 37.3267 14.0675Z" fill="var(--fill-0, #1B1537)"/>
<path d="M29.8774 11.3316C30.8389 11.3317 31.6659 11.5823 32.2866 12.0389C31.9476 12.6218 31.2926 13.7874 31.2926 13.7874C31.2772 13.7796 30.3923 13.3329 29.7222 13.3329C28.6199 13.333 27.817 13.9545 27.817 15.0393C27.817 16.1515 28.7269 16.778 29.748 16.7487C30.6319 16.686 31.2253 16.3559 31.2313 16.3525L32.1632 18.0264C31.5663 18.3984 30.5872 18.64 29.8774 18.6657C27.3374 18.7109 25.5704 17.2107 25.5704 15.0253C25.5706 12.8676 27.4506 11.3316 29.8774 11.3316Z" fill="var(--fill-0, #1B1537)"/>
<path d="M49.9461 18.6442H47.4276V13.8421H45.0021V18.6442H42.4843V11.7987H49.9461V18.6442Z" fill="var(--fill-0, #1B1537)"/>
</g>
</g>
</svg>
