<svg preserveAspectRatio="none" width="100%" height="100%" overflow="visible" style="display: block;" viewBox="0 0 24 24" fill="none" xmlns="http://www.w3.org/2000/svg">
<g id="action-search">
<path id="Vector (Stroke)" fill-rule="evenodd" clip-rule="evenodd" d="M10.828 4.75C7.47122 4.75 4.75001 7.47121 4.75001 10.828C4.75001 14.1848 7.47122 16.906 10.828 16.906C14.1848 16.906 16.906 14.1848 16.906 10.828C16.906 7.47121 14.1848 4.75 10.828 4.75ZM3.25001 10.828C3.25001 6.64279 6.6428 3.25 10.828 3.25C15.0132 3.25 18.406 6.64279 18.406 10.828C18.406 12.6502 17.7628 14.3223 16.6911 15.6294L20.8523 19.7907C21.1452 20.0836 21.1452 20.5584 20.8523 20.8513C20.5594 21.1442 20.0846 21.1442 19.7917 20.8513L15.6305 16.6902C14.3232 17.7625 12.6508 18.406 10.828 18.406C6.6428 18.406 3.25001 15.0132 3.25001 10.828Z" fill="var(--fill-0, #A7A5A5)"/>
</g>
</svg>
