<svg preserveAspectRatio="none" width="100%" height="100%" overflow="visible" style="display: block;" viewBox="0 0 26.3538 26.668" fill="none" xmlns="http://www.w3.org/2000/svg">
<g id="Subtract">
<path d="M17.7103 13.4668C18.7769 14.5335 20.3773 15.334 22.1107 15.334C22.6439 15.3338 23.3101 15.1997 23.8431 15.0664V21.334C23.8431 24.2673 21.4424 26.668 18.5091 26.668H17.1771V23.334C17.1771 21.1251 15.3859 19.3343 13.1771 19.334C10.9679 19.334 9.17708 21.1248 9.17708 23.334V26.668H7.84309C4.90976 26.668 2.50911 24.2673 2.50911 21.334V15.0664C3.0423 15.1997 3.7094 15.3339 4.50911 15.334C6.24244 15.334 7.84283 14.6668 8.9095 13.4668C9.97617 14.5335 11.5766 15.334 13.3099 15.334C15.0432 15.3339 16.6436 14.6668 17.7103 13.4668Z" fill="var(--fill-0, white)"/>
<path d="M19.4427 0C21.8427 0 24.1095 1.60143 24.9095 4.13477L25.9759 6.93359C26.2426 7.73359 26.5102 8.66823 26.2435 9.60156C25.7099 11.7345 23.9757 13.2012 21.9759 13.2012C19.5764 13.2008 17.5759 10.9342 17.5755 8.13477C17.5752 10.9342 15.5766 13.2008 13.1771 13.2012C10.7773 13.2012 8.77705 10.9344 8.77669 8.13477C8.77633 10.9344 6.77608 13.2012 4.3763 13.2012C2.3767 13.2011 0.644325 11.601 0.110673 9.60156C-0.155994 8.66823 0.109631 7.73359 0.376298 6.93359L1.4427 4.13477C2.2427 1.60143 4.37669 0 6.77669 0H19.4427Z" fill="var(--fill-0, white)"/>
</g>
</svg>
