<svg preserveAspectRatio="none" width="100%" height="100%" overflow="visible" style="display: block;" viewBox="0 0 16 16" fill="none" xmlns="http://www.w3.org/2000/svg">
<g id="Rating Star">
<path id="Vector (Stroke)" fill-rule="evenodd" clip-rule="evenodd" d="M7.4496 2.67111L6.07058 5.43107C5.98127 5.60983 5.80862 5.73373 5.60892 5.76239L2.5254 6.20491C2.02308 6.27723 1.82175 6.88773 2.18584 7.23849L4.41753 9.38728C4.56203 9.52641 4.62798 9.72687 4.59389 9.92333L4.06741 12.9573C3.98127 13.4513 4.50696 13.8295 4.95641 13.5958L7.71495 12.1631C7.8936 12.0703 8.10705 12.0703 8.28569 12.1631L11.0432 13.5957C11.4919 13.829 12.0183 13.4525 11.9324 12.9573L11.4059 9.92333C11.3718 9.72687 11.4377 9.52641 11.5822 9.38728L13.814 7.23837C14.178 6.88815 13.9776 6.27736 13.4745 6.20493L10.3908 5.76239C10.1911 5.73373 10.0185 5.60983 9.92918 5.43107L8.55003 2.67085C8.32551 2.22123 7.67536 2.22033 7.4496 2.67111Z" fill="var(--fill-0, #FFA218)"/>
</g>
</svg>
