<svg preserveAspectRatio="none" width="100%" height="100%" overflow="visible" style="display: block;" viewBox="0 0 67 27.6465" fill="none" xmlns="http://www.w3.org/2000/svg">
<g id="Group">
<path id="Vector" fill-rule="evenodd" clip-rule="evenodd" d="M11.0169 0.293176C11.8184 0.146588 12.6295 0.0165503 13.4477 0.00236433C26.8136 0.00236433 40.1794 0.0094573 53.5453 0C57.188 0.0922087 60.731 1.71177 63.2353 4.3409C65.5357 6.82344 66.9728 10.143 66.9942 13.5405C67.1057 17.2052 65.6069 20.8723 63.029 23.4754C60.3919 26.1684 56.6141 27.7217 52.8362 27.6437C39.8664 27.639 26.8966 27.6437 13.9267 27.6437C9.95205 27.6673 6.01059 25.8752 3.41615 22.8772C1.22486 20.3876 -0.0438979 17.087 0.00116099 13.7722C-0.0391548 10.0768 1.59245 6.44279 4.22721 3.8704C6.12679 2.11607 8.46511 0.796778 11.0169 0.293176Z" fill="var(--fill-0, #333333)"/>
<path id="Vector_2" fill-rule="evenodd" clip-rule="evenodd" d="M42.1866 15.2808C42.7131 14.075 43.0641 12.8053 43.5929 11.6043C44.1265 12.8053 44.4609 14.0868 44.985 15.2926C44.053 15.2973 43.1186 15.3115 42.1866 15.2808ZM31.4057 11.94C32.5132 11.8076 33.6586 11.7887 34.7614 11.9447C35.6293 12.0984 35.7669 13.1576 35.3021 13.7794C34.0807 14.3114 32.71 13.9828 31.4199 14.0655C31.4246 13.3562 31.4199 12.6469 31.4057 11.94ZM52.0308 16.165C52.1114 16.9476 52.0427 17.7349 52.064 18.5199C52.9936 18.5317 53.9256 18.5294 54.8553 18.5317C54.9905 17.508 54.5399 16.3329 55.1944 15.4345C56.3873 13.5454 57.4877 11.6019 58.6829 9.7128C57.6964 9.70807 56.7098 9.70097 55.7256 9.71989C54.9359 11.051 54.26 12.446 53.4893 13.7865C52.7138 12.4389 52.0095 11.0534 51.2292 9.70807C50.2 9.7128 49.1707 9.70807 48.1439 9.70334C49.3249 11.9163 50.7929 13.9804 52.0308 16.165ZM37.9724 18.5317C38.9945 18.527 40.019 18.527 41.0412 18.527C41.219 18.0967 41.3969 17.6687 41.5795 17.2408C42.9123 17.2455 44.2451 17.2668 45.5755 17.229C45.7937 17.6475 45.9834 18.0801 46.1376 18.5246C47.1455 18.5317 48.151 18.5317 49.1589 18.5246C48.004 15.5669 46.7447 12.6516 45.5613 9.7057C44.2522 9.7128 42.9431 9.7128 41.634 9.7057C40.3724 12.6304 39.2246 15.6023 37.9724 18.5317ZM28.7567 9.70097C28.7401 12.6422 28.7472 15.5834 28.7519 18.527C29.6389 18.527 30.5258 18.527 31.4152 18.5317C31.4223 17.7468 31.4223 16.9618 31.4152 16.1769C32.9424 16.0634 34.4981 16.3187 36.0088 16.0019C37.5052 15.6685 38.5677 14.1199 38.3258 12.6044C38.2523 10.9186 36.6017 9.76717 35.0104 9.72698C32.9282 9.67969 30.8412 9.73171 28.7567 9.70097Z" fill="var(--fill-0, #FEFEFE)"/>
<path id="Vector_3" fill-rule="evenodd" clip-rule="evenodd" d="M8.07632 7.06718C13.0541 7.07664 18.032 7.04354 23.0098 7.08373C23.0311 9.63011 23.0216 12.1765 23.0169 14.7229C22.9766 16.7373 21.7126 18.6074 19.9149 19.4941C18.3711 20.2719 16.9719 21.3524 15.3593 21.9766C14.4344 21.3146 13.3933 20.8346 12.4304 20.2294C11.3253 19.539 10.0376 19.0448 9.22887 17.9762C8.56959 17.1061 8.06446 16.0563 8.08106 14.9451C8.05497 12.3183 8.0692 9.69394 8.07632 7.06718ZM12.153 11.0582C12.1482 11.8147 12.1624 12.5737 12.153 13.3303C12.7933 12.7676 13.6589 12.7274 14.4652 12.7676C14.3822 14.2382 14.764 15.8435 13.9838 17.1865C14.9988 17.2078 16.0162 17.203 17.0312 17.1888C16.3031 15.8246 16.6968 14.2074 16.6517 12.7297C17.4201 12.7226 18.2098 12.8007 18.8359 13.2901C18.8406 12.5453 18.8525 11.8006 18.8478 11.0558C16.6162 11.0558 14.3822 11.0534 12.1506 11.0558L12.153 11.0582Z" fill="var(--fill-0, #FDDD2D)"/>
</g>
</svg>
