<svg preserveAspectRatio="none" width="100%" height="100%" overflow="visible" style="display: block;" viewBox="0 0 40 11.5789" fill="none" xmlns="http://www.w3.org/2000/svg">
<g id="visa" clip-path="url(#clip0_0_16827)">
<path id="visa-logo" fill-rule="evenodd" clip-rule="evenodd" d="M10.7636 11.2065H7.56604L5.16826 2.66868C5.05445 2.27594 4.8128 1.92873 4.45735 1.76509C3.57026 1.35385 2.59275 1.02657 1.52638 0.861507V0.532802H6.6774C7.38831 0.532802 7.9215 1.02657 8.01036 1.60003L9.25446 7.75863L12.4505 0.532802H15.5592L10.7636 11.2065ZM17.3365 11.2065H14.3167L16.8034 0.532802H19.8232L17.3365 11.2065ZM23.7298 3.48979C23.8186 2.91491 24.3518 2.5862 24.9739 2.5862C25.9514 2.50367 27.0162 2.66873 27.9048 3.07855L28.438 0.780455C27.5494 0.451749 26.5719 0.286685 25.6848 0.286685C22.7538 0.286685 20.6211 1.76515 20.6211 3.81707C20.6211 5.37807 22.1318 6.1977 23.1981 6.69147C24.3518 7.18382 24.7961 7.51252 24.7073 8.00487C24.7073 8.74339 23.8186 9.0721 22.9315 9.0721C21.8652 9.0721 20.7988 8.82592 19.8229 8.41468L19.2897 10.7142C20.356 11.124 21.5097 11.2891 22.5761 11.2891C25.8625 11.3702 27.9048 9.89315 27.9048 7.67616C27.9048 4.8843 23.7298 4.72066 23.7298 3.48979ZM38.4736 11.2065L36.0758 0.532802H33.5003C32.9671 0.532802 32.434 0.861507 32.2562 1.35385L27.8161 11.2065H30.9248L31.5453 9.64691H35.3649L35.7204 11.2065H38.4736ZM33.9449 3.40715L34.832 7.42989H32.3453L33.9449 3.40715Z" fill="var(--fill-0, #172B85)"/>
</g>
<defs>
<clipPath id="clip0_0_16827">
<rect width="40" height="11.5789" fill="white"/>
</clipPath>
</defs>
</svg>
