<svg preserveAspectRatio="none" width="100%" height="100%" overflow="visible" style="display: block;" viewBox="0 0 24 24" fill="none" xmlns="http://www.w3.org/2000/svg">
<g id="Wishlist Icon">
<path id="Vector (Stroke)" fill-rule="evenodd" clip-rule="evenodd" d="M2.25 9.36912C2.25 6.07041 4.65767 3.25 7.79925 3.25C9.49913 3.25 10.994 4.08608 12 5.36847C13.0059 4.08613 14.5006 3.25 16.1996 3.25C19.3423 3.25 21.75 6.07167 21.75 9.36912C21.75 10.6953 21.2489 11.9713 20.5251 13.1284C19.7997 14.2883 18.8229 15.3733 17.8015 16.3326C15.7592 18.2508 13.4589 19.7397 12.3901 20.3906C12.1504 20.5365 11.8493 20.5365 11.6096 20.3904C10.5411 19.7391 8.24079 18.2501 6.19851 16.3322C5.17709 15.3729 4.20033 14.288 3.47488 13.1283C2.75114 11.9712 2.25 10.6953 2.25 9.36912ZM7.79925 4.75C5.63983 4.75 3.75 6.73625 3.75 9.36912C3.75 10.3179 4.11117 11.317 4.74658 12.3328C5.38027 13.3458 6.25947 14.3316 7.22537 15.2387C8.94066 16.8496 10.8666 18.1546 12.0001 18.8678C13.1335 18.1552 15.0594 16.8502 16.7746 15.2392C17.7405 14.3321 18.6197 13.3462 19.2534 12.333C19.8888 11.3171 20.25 10.3179 20.25 9.36912C20.25 6.73751 18.3602 4.75 16.1996 4.75C14.7203 4.75 13.3843 5.66549 12.6719 7.10155C12.5452 7.35679 12.2849 7.51824 12 7.51824C11.7151 7.51824 11.4548 7.35679 11.3281 7.10155C10.6158 5.66559 9.2798 4.75 7.79925 4.75Z" fill="var(--fill-0, #A7A5A5)"/>
</g>
</svg>
