<svg preserveAspectRatio="none" width="100%" height="100%" overflow="visible" style="display: block;" viewBox="0 0 20 20" fill="none" xmlns="http://www.w3.org/2000/svg">
<g id="Zoom In">
<path id="Vector (Stroke)" fill-rule="evenodd" clip-rule="evenodd" d="M9.99908 3.0725C10.3443 3.07245 10.6241 3.35224 10.6242 3.69742L10.6249 9.35712L16.2842 9.3575C16.6294 9.35752 16.9092 9.63736 16.9092 9.98254C16.9091 10.3277 16.6293 10.6075 16.2841 10.6075L10.6251 10.6071L10.6258 16.2658C10.6259 16.6109 10.3461 16.8908 10.0009 16.8908C9.65574 16.8909 9.37588 16.6111 9.37583 16.2659L9.37508 10.607L3.71579 10.6067C3.37061 10.6066 3.09081 10.3268 3.09083 9.98163C3.09086 9.63645 3.3707 9.35664 3.71587 9.35667L9.37492 9.35704L9.37417 3.69758C9.37412 3.3524 9.65391 3.07255 9.99908 3.0725Z" fill="var(--fill-0, #333333)"/>
</g>
</svg>
